<?xml version="1.0" encoding="utf-8"?>
<!-- Generator: Adobe Illustrator 21.0.0, SVG Export Plug-In . SVG Version: 6.00 Build 0)  -->
<svg version="1.1" id="Calque_1" xmlns="http://www.w3.org/2000/svg" xmlns:xlink="http://www.w3.org/1999/xlink" x="0px" y="0px"
	 viewBox="0 0 1296 1728" style="enable-background:new 0 0 1296 1728;" xml:space="preserve">
<style type="text/css">
	.st0{fill:#080301;}
</style>
<g>
	<path class="st0" d="M678.9,868.3c-2.7,1.3-5.2,2.4-7.7,3.6c-0.5,0.2-1,0.5-1.4,0.7c-1.9,0.9-1.9,0.9-1.7,3c0,0.9,0,1.4-1.1,0.9
		c-0.2-0.1-0.4-0.1-0.6-0.1c-1.5,0-1.5,0-2.3-1.4c-0.6-1.1-1.2-2.1-1.8-3.2c0.6-0.3,0.9,0,1.3,0.3c0.9,1,1.8,1.2,2.9,0.5
		c2.4-1.2,5-2.3,7.5-3.5c0.3-0.1,0.7-0.1,0.7-0.5c0-0.5-0.5-0.5-0.8-0.6c-2.6-0.9-5.3-1.8-8-2.7c-1.2-0.4-2.1-0.1-2.8,0.8
		c-0.1,0.1-0.2,0.3-0.3,0.4c-0.2,0.2-0.5,0.3-0.8,0.2c-0.4-0.2-0.1-0.5,0-0.7c0.4-1.4,1.5-2.7,1.5-4.3c0-0.5,0.4-0.3,0.6-0.2
		c0.5,0.2,1.2,0.2,1.6,0c1.1-0.7,1.4-0.2,1.2,0.7c-0.3,1.8,1.1,2.2,2.3,2.7c2.4,0.9,4.9,1.7,7.4,2.5
		C677.6,867.8,678.1,867.9,678.9,868.3z"/>
	<path class="st0" d="M659.3,869.6c0-0.2,0-0.5,0-0.7c0.9-0.7,1-2,1.6-3c0.2-0.3,0.4-0.7,0.7-1.1c-1.5,2.9-1.5,5.7,0.5,8.3
		c-0.1,0-0.3,0.1-0.4,0.1c-0.5-0.9-1.1-1.8-1.7-2.7C660,870.3,659.9,869.8,659.3,869.6z"/>
</g>
</svg>
