<?xml version="1.0" encoding="utf-8"?>
<!-- Generator: Adobe Illustrator 21.0.0, SVG Export Plug-In . SVG Version: 6.00 Build 0)  -->
<svg version="1.1" id="Calque_1" xmlns="http://www.w3.org/2000/svg" xmlns:xlink="http://www.w3.org/1999/xlink" x="0px" y="0px"
	 viewBox="0 0 1296 1728" style="enable-background:new 0 0 1296 1728;" xml:space="preserve">
<style type="text/css">
	.st0{fill:#FFFFFF;stroke:#FFFFFF;stroke-miterlimit:10;}
</style>
<g>
	<path class="st0" d="M669,859.1c1.2,2.8,2.1,5.3,3.2,7.9c0.2,0.5,0.4,1,0.6,1.4c0.8,1.9,0.8,1.9,2.9,1.9c0.9,0,1.4,0.1,0.8,1.1
		c-0.1,0.2-0.1,0.4-0.1,0.6c-0.1,1.5-0.1,1.5-1.5,2.2c-1.1,0.5-2.2,1.1-3.3,1.6c-0.3-0.6,0-0.9,0.4-1.3c1-0.8,1.3-1.7,0.7-2.9
		c-1.1-2.5-2-5.1-3.1-7.7c-0.1-0.3-0.1-0.7-0.5-0.7c-0.5,0-0.5,0.5-0.6,0.8c-1,2.6-2.1,5.2-3.1,7.8c-0.5,1.2-0.2,2.1,0.7,2.8
		c0.1,0.1,0.3,0.2,0.4,0.3c0.2,0.2,0.3,0.5,0.2,0.8c-0.2,0.4-0.5,0.1-0.7,0c-1.4-0.5-2.6-1.6-4.2-1.7c-0.5,0-0.3-0.4-0.2-0.6
		c0.2-0.5,0.3-1.2,0.1-1.6c-0.6-1.1-0.1-1.4,0.8-1.2c1.8,0.4,2.3-1,2.8-2.2c1-2.4,2-4.8,2.9-7.3C668.4,860.4,668.6,859.9,669,859.1z
		"/>
	<path class="st0" d="M669.3,878.7c-0.2,0-0.5,0-0.7,0c-0.7-0.9-1.9-1.1-2.9-1.8c-0.3-0.2-0.7-0.4-1.1-0.8c2.8,1.6,5.6,1.8,8.3-0.1
		c0,0.1,0.1,0.3,0.1,0.4c-0.9,0.5-1.9,1-2.8,1.6C670,878.1,669.5,878.1,669.3,878.7z"/>
</g>
</svg>
